PathFileType	4	(X/Y/Z)	/Users/itak/Documents/Research/Walk-IL/dataset/trc/00100_00007.trc
DataRate	CameraRate	NumFrames	NumMarkers	Units	OrigDataRate	OrigDataStartFrame	OrigNumFrames
100.000000	100.000000	4	53	mm	100.000000	264	528
Frame#	Time	RPSI			LPSI			L3			STRN			T10			C7			CLAV			RBAK			LBAK			LSHO			LUPA			LAEL			LAOL			LWTS			LWPS			LFRA			LIFD			LHPS			LHTS			RSHO			RUPA			RAEL			RAOL			RWTS			RWPS			RFRA			RIFD			RHTS			RHPS			RBHD			LFHD			RFHD			LBHD			LHIP			RHIP			RASI			LASI			LKNE			LTHI			LANK			LTIP			LTOE			LMT1			LMT5			LHEE			RKNE			RTHI			RANK			RTIP			RTOE			RMT1			RMT5			RHEE			
		X1	Y1	Z1	X2	Y2	Z2	X3	Y3	Z3	X4	Y4	Z4	X5	Y5	Z5	X6	Y6	Z6	X7	Y7	Z7	X8	Y8	Z8	X9	Y9	Z9	X10	Y10	Z10	X11	Y11	Z11	X12	Y12	Z12	X13	Y13	Z13	X14	Y14	Z14	X15	Y15	Z15	X16	Y16	Z16	X17	Y17	Z17	X18	Y18	Z18	X19	Y19	Z19	X20	Y20	Z20	X21	Y21	Z21	X22	Y22	Z22	X23	Y23	Z23	X24	Y24	Z24	X25	Y25	Z25	X26	Y26	Z26	X27	Y27	Z27	X28	Y28	Z28	X29	Y29	Z29	X30	Y30	Z30	X31	Y31	Z31	X32	Y32	Z32	X33	Y33	Z33	X34	Y34	Z34	X35	Y35	Z35	X36	Y36	Z36	X37	Y37	Z37	X38	Y38	Z38	X39	Y39	Z39	X40	Y40	Z40	X41	Y41	Z41	X42	Y42	Z42	X43	Y43	Z43	X44	Y44	Z44	X45	Y45	Z45	X46	Y46	Z46	X47	Y47	Z47	X48	Y48	Z48	X49	Y49	Z49	X50	Y50	Z50	X51	Y51	Z51	X52	Y52	Z52	X53	Y53	Z53	

265	2.64	-869.1051635742188	1120.786254882812	-230.7578277587891	-880.958984375	1115.95361328125	-366.1346435546875	-881.2271728515625	1156.8798828125	-301.7035827636719	-655.1830444335938	1356.733276367188	-318.5685119628906	-912.074951171875	1309.778930664062	-305.1900634765625	-867.1806640625	1601.853515625	-324.5166015625	-687.8429565429688	1492.513427734375	-320.6092834472656	-923.6431274414062	1418.746215820312	-232.0235900878906	-878.802001953125	1582.021118164062	-426.8768310546875	-793.4312744140625	1565.308959960938	-496.4527282714844	-811.0833740234375	1431.819091796875	-563.3326416015625	-785.9755859375	1213.155883789062	-582.8900146484375	-852.0928344726562	1198.068481445312	-527.3261108398438	-672.8732299804688	962.89453125	-532.2138671875	-750.777587890625	932.2882080078125	-562.4376220703125	-763.0151977539062	1098.050415039062	-584.5634155273438	-652.216552734375	771.4572143554688	-505.873779296875	-717.6910400390625	859.4566650390625	-561.0172729492188	-652.2650756835938	874.0684204101562	-541.3953247070312	-806.8031005859375	1583.565795898438	-145.0837097167969	-821.6658935546875	1511.330688476562	-79.88145446777344	-836.4194946289062	1219.464111328125	-43.31318664550781	-846.6614379882812	1213.977661132812	-139.2528839111328	-691.5828247070312	977.475341796875	-51.35568618774414	-764.2210693359375	961.6422729492188	-15.30918025970459	-812.1934814453125	1147.029418945312	-25.30521392822266	-670.4136352539062	780.5587158203125	-62.71464538574219	-662.83154296875	868.2721557617188	-43.51466369628906	-727.7423706054688	862.4066162109375	-8.355212211608887	-831.0686645507812	1768.322875976562	-248.3654479980469	-674.0173950195312	1839.151977539062	-385.1044006347656	-671.9346313476562	1845.62451171875	-255.271484375	-841.3749389648438	1765.49755859375	-383.7624816894531	-792.1126708984375	1024.798583984375	-478.1707458496094	-731.0974731445312	1034.268920898438	-119.5874404907227	-655.4293212890625	1104.87744140625	-182.076416015625	-684.8555297851562	1095.1171875	-444.6830139160156	-645.0801391601562	525.3587036132812	-459.8944091796875	-702.2120361328125	672.5269775390625	-478.4731140136719	-1073.158935546875	207.7296142578125	-425.9665222167969	-881.5592041015625	383.3260192871094	-463.3060913085938	-916.5248413085938	44.55582046508789	-404.4008483886719	-960.504150390625	95.79176330566406	-359.5057067871094	-1008.228820800781	108.8087310791016	-464.3373413085938	-1100.87939453125	260.1193542480469	-355.9545593261719	-675.7666015625	543.193115234375	-176.4303588867188	-687.1447143554688	822.05078125	-132.5193786621094	-751.2899780273438	28.10288619995117	-203.5390167236328	-687.6588745117188	405.7426452636719	-167.100830078125	-527.13720703125	43.97909927368164	-279.9525146484375	-590.5363159179688	35.62973785400391	-314.665283203125	-616.67529296875	39.78631973266602	-195.3576202392578	-812.6886596679688	31.8868350982666	-246.3762664794922	
266	2.65	-860.520751953125	1121.109741210938	-230.8694000244141	-872.33154296875	1116.483276367188	-366.2491760253906	-872.6211547851562	1157.305786132812	-301.6580200195312	-646.5142822265625	1357.294555664062	-318.6551513671875	-903.3685302734375	1310.328979492188	-304.8283081054688	-858.2957763671875	1602.431030273438	-324.1068115234375	-679.13232421875	1493.064575195312	-320.9067993164062	-914.6629028320312	1419.440185546875	-231.3573303222656	-870.3799438476562	1582.577758789062	-426.3665466308594	-785.4328002929688	1565.7939453125	-496.4762878417969	-804.2764282226562	1432.2236328125	-563.05224609375	-781.4620971679688	1213.280151367188	-582.1521606445312	-847.1781005859375	1199.077514648438	-525.8914794921875	-671.2108154296875	961.578125	-531.9721069335938	-749.8201293945312	931.9869995117188	-561.4347534179688	-759.921875	1097.907470703125	-583.7737426757812	-652.8587036132812	769.9598999023438	-505.707763671875	-717.6881103515625	858.7340698242188	-560.275634765625	-651.8978271484375	872.4916381835938	-541.2625122070312	-797.3800048828125	1584.193969726562	-144.9544677734375	-811.7963256835938	1511.894287109375	-79.69851684570312	-824.1640625	1220.078247070312	-41.82972717285156	-834.94091796875	1214.095947265625	-137.6580047607422	-677.2964477539062	979.32568359375	-49.70877838134766	-749.58203125	963.037109375	-13.23487091064453	-799.1834106445312	1147.92138671875	-23.66937065124512	-654.1569213867188	782.753173828125	-60.06039428710938	-647.4844970703125	870.46142578125	-41.40571212768555	-712.1803588867188	864.2153930664062	-5.906308174133301	-822.0513305664062	1768.853149414062	-248.3312530517578	-665.3414916992188	1839.766357421875	-385.4053649902344	-663.0402221679688	1846.351928710938	-255.5658111572266	-832.6046142578125	1765.919921875	-383.7095947265625	-782.8875122070312	1025.63134765625	-478.2992248535156	-723.1302490234375	1034.342529296875	-119.3418655395508	-647.004638671875	1105.232421875	-181.57958984375	-676.035400390625	1095.999267578125	-444.2673950195312	-626.2330932617188	528.8175659179688	-459.6513977050781	-686.5537719726562	674.8209228515625	-478.5939636230469	-1049.651000976562	205.86865234375	-425.8036499023438	-861.2052001953125	384.1268005371094	-462.527587890625	-888.3934936523438	46.53105926513672	-407.7619323730469	-933.6060180664062	95.86667633056641	-361.6169738769531	-981.550048828125	110.2216949462891	-466.521728515625	-1079.08203125	255.9936676025391	-354.7950134277344	-672.7127075195312	542.64453125	-175.8751220703125	-680.6290283203125	821.8170776367188	-132.4673309326172	-751.364990234375	28.12905502319336	-203.7930297851562	-685.8189697265625	405.3200378417969	-166.7210540771484	-527.1834716796875	43.97869491577148	-280.03564453125	-590.4596557617188	35.54983901977539	-314.5901184082031	-616.7005615234375	39.78409194946289	-195.2712860107422	-812.7960815429688	31.72634696960449	-246.6175842285156	
267	2.66	-851.967529296875	1121.424194335938	-231.0480804443359	-863.6798706054688	1117.051025390625	-366.4207153320312	-864.0191040039062	1157.733642578125	-301.6748657226562	-637.847412109375	1357.846313476562	-318.7068481445312	-894.6497192382812	1310.880249023438	-304.5051574707031	-849.4334716796875	1602.997680664062	-323.7712097167969	-670.4291381835938	1493.613159179688	-321.1976623535156	-905.6609497070312	1420.111938476562	-230.7581634521484	-861.9212036132812	1583.126342773438	-425.9264221191406	-777.3629760742188	1566.29931640625	-496.5211791992188	-797.40625	1432.68408203125	-562.8421630859375	-777.0455322265625	1213.4775390625	-581.4974975585938	-842.3312377929688	1200.172241210938	-524.5016479492188	-669.57568359375	960.398681640625	-531.8235473632812	-748.8910522460938	931.8073120117188	-560.4432983398438	-756.928466796875	1097.8564453125	-583.065185546875	-653.55224609375	768.6220092773438	-505.4022827148438	-717.6971435546875	858.1318969726562	-559.4821166992188	-651.5460815429688	871.0494384765625	-541.129150390625	-788.0391845703125	1584.863159179688	-144.8857879638672	-802.0048217773438	1512.520751953125	-79.55364990234375	-811.912353515625	1220.750244140625	-40.44839859008789	-823.1477661132812	1214.261352539062	-136.1778106689453	-662.9472045898438	981.2928466796875	-48.08103179931641	-734.9100952148438	964.5211791992188	-11.26777648925781	-786.1812744140625	1148.884887695312	-22.12071418762207	-637.7709350585938	785.111083984375	-57.43986892700195	-632.0499877929688	872.7890625	-39.30924987792969	-696.5742797851562	866.1386108398438	-3.553698062896729	-813.0691528320312	1769.424194335938	-248.3627014160156	-656.656982421875	1840.343505859375	-385.7611083984375	-654.1486206054688	1847.053466796875	-255.9174957275391	-823.8552856445312	1766.373413085938	-383.7244873046875	-773.6749877929688	1026.544189453125	-478.509521484375	-715.1962280273438	1034.340454101562	-119.1372451782227	-638.6192016601562	1105.497314453125	-181.0696868896484	-667.2001953125	1096.90966796875	-443.8864135742188	-607.851806640625	532.478271484375	-459.3268127441406	-671.2210083007812	677.2649536132812	-478.7296447753906	-1025.351684570312	202.576171875	-425.8129577636719	-840.8048706054688	384.3509826660156	-461.8432922363281	-858.9864501953125	48.12420272827148	-410.4525451660156	-905.5948486328125	95.39872741699219	-363.3560485839844	-953.773193359375	110.396614074707	-468.3567810058594	-1056.657958984375	250.4662475585938	-354.0077209472656	-669.6915283203125	542.0963745117188	-175.4051666259766	-674.2166748046875	821.5256958007812	-132.5086822509766	-751.4338989257812	28.17218780517578	-204.0078125	-683.9862670898438	404.9134826660156	-166.4226989746094	-527.2317504882812	44.00335311889648	-280.126220703125	-590.3837890625	35.46344757080078	-314.5077514648438	-616.7246704101562	39.79243850708008	-195.2032012939453	-812.8793334960938	31.63419151306152	-246.8365936279297	
268	2.67	-843.4334106445312	1121.725341796875	-231.2941131591797	-855.003173828125	1117.638549804688	-366.6519775390625	-855.419189453125	1158.152221679688	-301.7545471191406	-629.1669311523438	1358.366333007812	-318.72900390625	-885.8970336914062	1311.416015625	-304.2049255371094	-840.5787353515625	1603.536499023438	-323.4989929199219	-661.7155151367188	1494.136962890625	-321.4796142578125	-896.62158203125	1420.752319335938	-230.2085723876953	-853.4151000976562	1583.646362304688	-425.5452575683594	-769.2168579101562	1566.7841796875	-496.5809020996094	-790.4623413085938	1433.160034179688	-562.691650390625	-772.6802978515625	1213.714599609375	-580.9237670898438	-837.5232543945312	1201.309326171875	-523.1763916015625	-667.9318237304688	959.3195190429688	-531.7555541992188	-747.9468383789062	931.7161254882812	-559.478271484375	-753.9884033203125	1097.864501953125	-582.435546875	-654.25341796875	767.4085083007812	-504.9619140625	-717.6844482421875	857.6151733398438	-558.6522216796875	-651.1681518554688	869.7075805664062	-540.988037109375	-778.7496337890625	1585.557373046875	-144.8679351806641	-792.2650146484375	1513.194458007812	-79.43590545654297	-799.6858520507812	1221.468505859375	-39.15398025512695	-811.32470703125	1214.469604492188	-134.7943572998047	-648.54638671875	983.3770141601562	-46.49950790405273	-720.203369140625	966.0838623046875	-9.413488388061523	-773.2024536132812	1149.904418945312	-20.65238189697266	-621.267333984375	787.6226806640625	-54.91281890869141	-616.5264892578125	875.2579345703125	-37.27338027954102	-680.9053955078125	868.1648559570312	-1.322578191757202	-804.1223754882812	1770.014770507812	-248.4580078125	-647.9629516601562	1840.871215820312	-386.1682739257812	-645.2622680664062	1847.71728515625	-256.3249816894531	-815.1209106445312	1766.8359375	-383.8101196289062	-764.5100708007812	1027.510864257812	-478.803955078125	-707.2537231445312	1034.26708984375	-118.9955291748047	-630.2789306640625	1105.66259765625	-180.5605316162109	-658.3525390625	1097.821411132812	-443.5460510253906	-589.9722900390625	536.2810668945312	-458.9309387207031	-656.2262573242188	679.8185424804688	-478.8918151855469	-1000.301147460938	197.9526062011719	-425.9918212890625	-820.3668823242188	383.9771423339844	-461.2811279296875	-828.4794311523438	49.31548309326172	-412.5222778320312	-876.6189575195312	94.41220855712891	-364.7628479003906	-925.0452880859375	109.3848724365234	-469.860107421875	-1033.57568359375	243.6450805664062	-353.5758056640625	-666.6768188476562	541.5446166992188	-175.0171051025391	-667.9088134765625	821.175537109375	-132.6234436035156	-751.498291015625	28.22969055175781	-204.1846008300781	-682.1273803710938	404.5196228027344	-166.2044677734375	-527.2762451171875	44.03379058837891	-280.2219543457031	-590.319580078125	35.36508178710938	-314.4255065917969	-616.7465209960938	39.80717086791992	-195.149169921875	-812.9437255859375	31.60815811157227	-247.0264739990234	
